<?xml version="1.0" encoding="UTF-8" standalone="no"?>
<svg
   xmlns:dc="http://purl.org/dc/elements/1.1/"
   xmlns:cc="http://creativecommons.org/ns#"
   xmlns:rdf="http://www.w3.org/1999/02/22-rdf-syntax-ns#"
   xmlns:svg="http://www.w3.org/2000/svg"
   xmlns="http://www.w3.org/2000/svg"
   xmlns:sodipodi="http://sodipodi.sourceforge.net/DTD/sodipodi-0.dtd"
   xmlns:inkscape="http://www.inkscape.org/namespaces/inkscape"
   version="1.1"
   id="svg982"
   xml:space="preserve"
   width="2692.9668"
   height="906.71759"
   viewBox="0 0 2692.9668 906.71759"
   sodipodi:docname="Circuito_Descarga.svg"
   inkscape:version="1.0.2-2 (e86c870879, 2021-01-15)"><metadata
     id="metadata988"><rdf:RDF><cc:Work
         rdf:about=""><dc:format>image/svg+xml</dc:format><dc:type
           rdf:resource="http://purl.org/dc/dcmitype/StillImage" /><dc:title></dc:title></cc:Work></rdf:RDF></metadata><defs
     id="defs986" /><sodipodi:namedview
     pagecolor="#ffffff"
     bordercolor="#666666"
     borderopacity="1"
     objecttolerance="10"
     gridtolerance="10"
     guidetolerance="10"
     inkscape:pageopacity="0"
     inkscape:pageshadow="2"
     inkscape:window-width="1920"
     inkscape:window-height="1057"
     id="namedview984"
     showgrid="false"
     inkscape:zoom="0.26703916"
     inkscape:cx="992.24722"
     inkscape:cy="736.83351"
     inkscape:window-x="-8"
     inkscape:window-y="-8"
     inkscape:window-maximized="1"
     inkscape:current-layer="g990" /><g
     id="g990"
     inkscape:groupmode="layer"
     inkscape:label="circuito"
     transform="matrix(1.3333333,0,0,1.3333333,0,2.2001274e-5)"><g
       id="g992"
       transform="matrix(0.88597301,0,0,0.85544908,1221.731,30.894346)"><path
         d="m 721.68,679.094 c -4.672,-1.867 -11.715,-8.922 -13.489,-13.516 l -1.656,-4.285 H 397.168 c -280.344,0 -309.473,-0.281 -310.523,-3.012 -0.633,-1.656 -1.157,-40.23 -1.157,-85.715 0,-45.484 -0.64,-82.714 -1.425,-82.734 -0.786,-0.019 -7.114,-1.238 -14.059,-2.711 C 21.223,476.781 -9.598,427.832 2.715,380.266 7.055,363.504 12.383,353.727 24.031,341.141 36.246,327.949 55.234,317.645 73.586,314.25 l 11.902,-2.199 v -83.094 c 0,-62.086 0.578,-83.668 2.289,-85.379 1.731,-1.73 32.871,-2.285 128.504,-2.285 H 342.5 l 0.543,-19.367 c 0.305,-10.86 1.387,-19.653 2.465,-20.008 1.058,-0.352 10.226,15.867 20.371,36.035 l 18.441,36.672 0.348,-33.809 c 0.41,-40.168 0.242,-38.058 3.125,-39.019 1.391,-0.465 9.469,13.441 20.375,35.078 l 18.07,35.848 0.102,-32.493 c 0.078,-24.917 0.73,-33.355 2.805,-36.187 1.484,-2.035 3.101,-3.27 3.593,-2.746 0.492,0.523 8.922,16.805 18.727,36.187 l 17.836,35.239 0.515,-35.715 c 0.438,-29.949 0.973,-35.715 3.325,-35.715 1.73,0 9.703,13.684 20.808,35.715 l 18.004,35.715 0.129,-31.43 c 0.133,-32.789 0.961,-40 4.606,-40 1.199,0 10.48,16.5 20.621,36.668 l 18.441,36.664 0.344,-33.809 c 0.414,-40.168 0.246,-38.058 3.129,-39.019 1.39,-0.465 9.468,13.441 20.375,35.078 l 18.07,35.848 0.102,-12.703 c 0.164,-20.477 -5.024,-18.727 55.453,-18.727 h 53.043 l 3.203,-6.75 c 5.367,-11.316 19.351,-15.598 31.097,-9.523 5.86,3.031 11.59,13.199 11.59,20.566 0,7.559 -7.836,17.316 -16.254,20.234 -6.578,2.282 -8.48,2.231 -14.707,-0.382 -4.316,-1.813 -8.734,-5.684 -11.14,-9.766 l -3.989,-6.758 h -102.48 l -0.227,16.664 c -0.125,9.168 -0.078,17.445 0.102,18.399 0.18,0.953 -0.793,2.425 -2.156,3.273 -1.828,1.141 -7.332,-8.066 -20.953,-35.062 l -18.469,-36.61 -0.102,35.512 c -0.136,48.199 -0.527,48.215 -24.402,1.101 l -18.555,-36.613 -0.519,35.527 c -0.391,27 -1.11,35.754 -2.992,36.477 -1.657,0.637 -8.403,-10.969 -20.434,-35.152 l -17.961,-36.098 -0.953,34.293 c -0.629,22.637 -1.715,35.059 -3.199,36.539 -1.727,1.723 -6.59,-6.328 -20.953,-34.672 l -18.704,-36.914 -0.519,35.156 c -0.375,25.219 -1.184,35.563 -2.86,36.606 -1.636,1.019 -7.855,-9.485 -20.804,-35.152 l -18.473,-36.61 -0.101,35.512 c -0.137,48.09 -0.598,48.129 -23.825,2.055 l -17.976,-35.661 -0.102,13.606 c -0.078,10.586 -0.769,13.863 -3.113,14.762 -1.66,0.636 -59.516,1.156 -128.574,1.156 H 91.203 v 165.043 l 11.656,2.168 c 27.672,5.144 53.344,24.406 64.516,48.406 25.867,55.559 -7.191,116.012 -69.027,126.23 l -7.145,1.184 v 163.637 h 615.332 l 1.656,-4.285 c 3.372,-8.731 11.184,-13.813 21.227,-13.813 8,0 10.219,0.891 15.559,6.227 5.359,5.359 6.226,7.547 6.226,15.679 0,8.024 -0.887,10.34 -5.89,15.344 -5.887,5.887 -17.118,8.863 -23.633,6.266 z M 107.328,481.23 c 33.051,-8.609 56.762,-34.566 62.348,-68.257 8.429,-50.871 -35.973,-98.332 -87.918,-93.977 -41.074,3.442 -72.563,35.289 -75.719,76.582 -4.207,54.977 48.371,99.438 101.289,85.652 z m -61.84,-79.937 c 0,-2.453 6.035,-2.855 42.86,-2.855 36.824,0 42.855,0.402 42.855,2.855 0,2.457 -6.031,2.859 -42.855,2.859 -36.825,0 -42.86,-0.402 -42.86,-2.859 z m 1830.477,277.801 c -4.672,-1.867 -11.711,-8.922 -13.488,-13.516 l -1.653,-4.285 h -309.367 c -280.348,0 -309.477,-0.281 -310.523,-3.012 -0.637,-1.656 -1.157,-40.23 -1.157,-85.715 0,-45.484 -0.644,-82.714 -1.429,-82.734 -0.785,-0.019 -7.114,-1.238 -14.059,-2.711 -33.289,-7.055 -58.59,-31.473 -67.312,-64.953 -13.082,-50.23 21.363,-100.664 74.156,-108.582 l 8.644,-1.297 v -83.211 c 0,-62.183 0.575,-83.789 2.286,-85.5 1.73,-1.73 32.871,-2.285 128.503,-2.285 h 126.219 l 0.543,-19.367 c 0.305,-10.86 1.387,-19.653 2.469,-20.008 1.058,-0.352 10.223,15.867 20.367,36.035 l 18.441,36.672 0.348,-33.809 c 0.41,-40.168 0.242,-38.058 3.125,-39.019 1.395,-0.465 9.473,13.441 20.375,35.078 l 18.07,35.848 0.129,-31.43 c 0.133,-32.793 0.965,-40 4.606,-40 1.203,0 10.316,16.07 20.258,35.715 l 18.07,35.715 0.516,-35.715 c 0.437,-29.949 0.972,-35.715 3.324,-35.715 1.73,0 9.703,13.684 20.808,35.715 l 18.004,35.715 0.129,-31.43 c 0.133,-32.793 0.961,-40 4.606,-40 1.203,0 10.316,16.07 20.254,35.715 20.722,40.949 18.546,41.836 19.48,-7.942 0.293,-15.718 1.281,-26.769 2.422,-27.148 1.059,-0.352 10.059,15.437 20,35.082 l 18.074,35.723 0.492,-11.43 c 0.27,-6.285 0.93,-13.355 1.465,-15.715 l 0.973,-4.285 h 106.543 l 2.734,-6.539 c 4.785,-11.457 20.348,-15.996 31.754,-9.258 7.297,4.309 11.973,14.356 10.453,22.457 -3.972,21.18 -30.418,26.125 -41.277,7.719 l -3.988,-6.758 h -102.481 l -0.285,16.188 c -0.371,20.961 -0.344,20.718 -2.574,22.324 -1.121,0.808 -9.473,-13.633 -20.371,-35.238 l -18.473,-36.61 -0.102,35.512 c -0.136,48.199 -0.527,48.215 -24.402,1.101 l -18.555,-36.613 -0.519,35.527 c -0.391,27 -1.11,35.754 -2.992,36.477 -1.657,0.637 -8.403,-10.969 -20.434,-35.152 l -17.961,-36.098 -0.953,34.293 c -0.629,22.637 -1.715,35.059 -3.199,36.539 -1.727,1.723 -6.59,-6.328 -20.953,-34.672 l -18.703,-36.914 -0.52,35.156 c -0.375,25.219 -1.184,35.563 -2.859,36.606 -1.637,1.019 -7.856,-9.485 -20.805,-35.152 l -18.473,-36.61 -0.097,35.512 c -0.141,48.09 -0.602,48.129 -23.828,2.055 l -17.977,-35.661 -0.102,9.875 c -0.054,5.434 -0.937,12.075 -1.961,14.762 l -1.855,4.887 h -253.43 v 165.043 l 11.657,2.168 c 36.96,6.871 65.48,35.582 72.14,72.609 5.606,31.164 -8.453,65.785 -34.496,84.957 -10.769,7.926 -27.101,14.535 -42.156,17.055 l -7.145,1.199 v 163.637 h 615.332 l 1.657,-4.285 c 3.371,-8.731 11.183,-13.813 21.226,-13.813 8,0 10.223,0.891 15.559,6.227 5.359,5.359 6.226,7.547 6.226,15.679 0,8.024 -0.886,10.34 -5.89,15.344 -5.887,5.887 -17.118,8.863 -23.633,6.266 z M 1261.613,481.23 c 41.891,-10.91 69.004,-51.324 62.176,-92.671 -7.059,-42.723 -45.394,-73.114 -87.746,-69.563 -41.453,3.473 -72.906,35.481 -75.813,77.156 -3.82,54.817 48.618,98.821 101.383,85.078 z m -61.836,-79.937 c 0,-2.453 6.032,-2.855 42.856,-2.855 36.824,0 42.855,0.402 42.855,2.855 0,2.457 -6.031,2.859 -42.855,2.859 -36.824,0 -42.856,-0.402 -42.856,-2.859 z"
         style="fill:#000000;fill-opacity:1;fill-rule:nonzero;stroke:none"
         id="path994" /><g
         id="g996"><path
           d="M 204.723,527.391 V 298.59"
           style="fill:none;stroke:#000000;stroke-width:5.85354;stroke-linecap:butt;stroke-linejoin:miter;stroke-miterlimit:4;stroke-dasharray:none;stroke-opacity:1"
           id="path998" /></g><g
         id="g1000"
         transform="rotate(90)"><path
           d="m 322.008,-204.723 11.707,-11.707 -40.977,11.707 40.977,11.707 z"
           style="fill:#000000;fill-opacity:1;fill-rule:evenodd;stroke:#000000;stroke-width:3.12189;stroke-linecap:butt;stroke-linejoin:miter;stroke-miterlimit:4;stroke-dasharray:none;stroke-opacity:1"
           id="path1002" /></g><g
         id="g1004"><path
           d="M 650.836,101.613 H 790.652"
           style="fill:none;stroke:#000000;stroke-width:5.85354;stroke-linecap:butt;stroke-linejoin:miter;stroke-miterlimit:4;stroke-dasharray:none;stroke-opacity:1"
           id="path1006" /></g><g
         id="g1008"
         transform="scale(-1)"><path
           d="m -767.238,-101.613 11.707,-11.707 -40.977,11.707 40.977,11.707 z"
           style="fill:#000000;fill-opacity:1;fill-rule:evenodd;stroke:#000000;stroke-width:3.12189;stroke-linecap:butt;stroke-linejoin:miter;stroke-miterlimit:4;stroke-dasharray:none;stroke-opacity:1"
           id="path1010" /></g><path
         d="m 725.004,22.859 c 0.559,-2.57 0.781,-3.238 6.473,-3.238 1.675,0 2.234,0 2.234,-1.34 0,-0.894 -0.781,-0.894 -1.004,-0.894 -2.121,0 -7.371,0.226 -9.492,0.226 -2.121,0 -7.254,-0.226 -9.488,-0.226 -0.446,0 -1.34,0 -1.34,1.453 0,0.781 0.558,0.781 2.011,0.781 2.903,0 4.911,0 4.911,1.34 0,0.336 0,0.559 -0.223,1.117 l -9.602,38.399 c -0.668,2.679 -0.781,3.351 -6.472,3.351 -1.676,0 -2.235,0 -2.235,1.449 0,0.782 0.782,0.782 1.008,0.782 2.121,0 7.254,-0.223 9.375,-0.223 2.121,0 7.367,0.223 9.488,0.223 0.559,0 1.454,0 1.454,-1.34 0,-0.891 -0.559,-0.891 -2.122,-0.891 -1.339,0 -1.675,0 -3.015,-0.113 -1.563,-0.113 -1.785,-0.445 -1.785,-1.227 0,-0.558 0.109,-1.117 0.222,-1.675 z"
         style="fill:#000000;fill-opacity:1;fill-rule:nonzero;stroke:none"
         id="path1012" /><path
         d="m 871.316,371.871 c 3.664,-5.906 6.852,-6.141 9.567,-6.258 0.945,-0.117 1.062,-1.3 1.062,-1.418 0,-0.59 -0.472,-0.945 -1.062,-0.945 -1.891,0 -4.133,0.238 -6.141,0.238 -2.48,0 -5.078,-0.238 -7.437,-0.238 -0.473,0 -1.418,0 -1.418,1.418 0,0.828 0.59,0.945 1.179,0.945 2.008,0.117 3.426,0.946 3.426,2.481 0,1.179 -1.062,2.832 -1.062,2.832 l -23.145,36.84 -5.195,-39.911 c 0,-1.296 1.773,-2.242 5.195,-2.242 1.063,0 1.891,0 1.891,-1.535 0,-0.59 -0.59,-0.828 -0.946,-0.828 -3.07,0 -6.257,0.238 -9.445,0.238 -1.301,0 -2.715,0 -4.133,0 -1.3,0 -2.714,-0.238 -4.015,-0.238 -0.59,0 -1.418,0 -1.418,1.418 0,0.945 0.594,0.945 1.89,0.945 4.133,0 4.25,0.707 4.489,2.598 l 5.902,46.402 c 0.238,1.535 0.59,1.774 1.535,1.774 1.18,0 1.535,-0.356 2.125,-1.301 z"
         style="fill:#000000;fill-opacity:1;fill-rule:nonzero;stroke:none"
         id="path1014" /><g
         id="g1016"><path
           d="M 779.105,627.309 V 194.566"
           style="fill:none;stroke:#000000;stroke-width:5.85357;stroke-linecap:butt;stroke-linejoin:miter;stroke-miterlimit:4;stroke-dasharray:none;stroke-opacity:1"
           id="path1018" /></g><g
         id="g1020"
         transform="rotate(90)"><path
           d="m 217.98,-779.105 11.708,-11.708 -40.977,11.708 40.977,11.707 z"
           style="fill:#000000;fill-opacity:1;fill-rule:evenodd;stroke:#000000;stroke-width:3.12191;stroke-linecap:butt;stroke-linejoin:miter;stroke-miterlimit:4;stroke-dasharray:none;stroke-opacity:1"
           id="path1022" /></g><g
         id="g1024"><path
           d="m 1927.457,77.367 h -139.82"
           style="fill:none;stroke:#000000;stroke-width:5.85354;stroke-linecap:butt;stroke-linejoin:miter;stroke-miterlimit:4;stroke-dasharray:none;stroke-opacity:1"
           id="path1026" /></g><g
         id="g1028"><path
           d="m 1811.051,77.367 11.707,-11.707 -40.977,11.707 40.977,11.707 z"
           style="fill:#000000;fill-opacity:1;fill-rule:evenodd;stroke:#000000;stroke-width:3.12189;stroke-linecap:butt;stroke-linejoin:miter;stroke-miterlimit:4;stroke-dasharray:none;stroke-opacity:1"
           id="path1030" /></g><path
         d="m 1908.023,5.469 c 0.559,-2.567 0.782,-3.235 6.477,-3.235 1.672,0 2.23,0 2.23,-1.339 C 1916.73,0 1915.949,0 1915.727,0 c -2.122,0 -7.368,0.223 -9.489,0.223 -2.121,0 -7.258,-0.223 -9.488,-0.223 -0.449,0 -1.34,0 -1.34,1.453 0,0.781 0.559,0.781 2.008,0.781 2.902,0 4.914,0 4.914,1.336 0,0.336 0,0.559 -0.227,1.118 l -9.597,38.402 c -0.672,2.68 -0.781,3.348 -6.477,3.348 -1.672,0 -2.23,0 -2.23,1.453 0,0.781 0.781,0.781 1.004,0.781 2.121,0 7.254,-0.223 9.375,-0.223 2.121,0 7.371,0.223 9.492,0.223 0.555,0 1.449,0 1.449,-1.34 0,-0.894 -0.558,-0.894 -2.121,-0.894 -1.34,0 -1.676,0 -3.016,-0.11 -1.562,-0.113 -1.785,-0.449 -1.785,-1.23 0,-0.559 0.114,-1.118 0.223,-1.672 z"
         style="fill:#000000;fill-opacity:1;fill-rule:nonzero;stroke:none"
         id="path1032" /><path
         d="m 2009.098,360.75 c 3.66,-5.902 6.847,-6.137 9.566,-6.258 0.941,-0.117 1.063,-1.297 1.063,-1.414 0,-0.59 -0.473,-0.945 -1.063,-0.945 -1.891,0 -4.133,0.234 -6.141,0.234 -2.48,0 -5.078,-0.234 -7.441,-0.234 -0.473,0 -1.414,0 -1.414,1.418 0,0.824 0.59,0.941 1.18,0.941 2.007,0.121 3.425,0.946 3.425,2.481 0,1.179 -1.062,2.836 -1.062,2.836 l -23.145,36.839 -5.195,-39.91 c 0,-1.3 1.77,-2.246 5.195,-2.246 1.063,0 1.891,0 1.891,-1.535 0,-0.59 -0.594,-0.824 -0.945,-0.824 -3.071,0 -6.258,0.234 -9.446,0.234 -1.3,0 -2.718,0 -4.132,0 -1.301,0 -2.719,-0.234 -4.016,-0.234 -0.59,0 -1.418,0 -1.418,1.418 0,0.941 0.59,0.941 1.891,0.941 4.132,0 4.25,0.711 4.484,2.598 l 5.906,46.406 c 0.235,1.535 0.59,1.77 1.535,1.77 1.18,0 1.536,-0.352 2.125,-1.297 z"
         style="fill:#000000;fill-opacity:1;fill-rule:nonzero;stroke:none"
         id="path1034" /><g
         id="g1036"><path
           d="M 1916.887,616.191 V 183.449"
           style="fill:none;stroke:#000000;stroke-width:5.85357;stroke-linecap:butt;stroke-linejoin:miter;stroke-miterlimit:4;stroke-dasharray:none;stroke-opacity:1"
           id="path1038" /></g><g
         id="g1040"
         transform="rotate(90)"><path
           d="m 206.863,-1916.887 11.707,-11.707 -40.976,11.707 40.976,11.707 z"
           style="fill:#000000;fill-opacity:1;fill-rule:evenodd;stroke:#000000;stroke-width:3.12191;stroke-linecap:butt;stroke-linejoin:miter;stroke-miterlimit:4;stroke-dasharray:none;stroke-opacity:1"
           id="path1042" /></g><g
         id="g1044"><path
           d="M 1384.465,524.824 V 296.027"
           style="fill:none;stroke:#000000;stroke-width:5.85354;stroke-linecap:butt;stroke-linejoin:miter;stroke-miterlimit:4;stroke-dasharray:none;stroke-opacity:1"
           id="path1046" /></g><g
         id="g1048"
         transform="rotate(90)"><path
           d="m 319.441,-1384.465 11.707,-11.707 -40.976,11.707 40.976,11.707 z"
           style="fill:#000000;fill-opacity:1;fill-rule:evenodd;stroke:#000000;stroke-width:3.12189;stroke-linecap:butt;stroke-linejoin:miter;stroke-miterlimit:4;stroke-dasharray:none;stroke-opacity:1"
           id="path1050" /></g><path
         d="m 457.766,8.551 c 0.476,-1.793 0.714,-2.508 2.148,-2.75 0.719,-0.117 3.106,-0.117 4.656,-0.117 5.375,0 13.856,0 13.856,7.523 0,2.629 -1.196,7.883 -4.18,10.867 -2.031,1.91 -5.973,4.418 -12.898,4.418 h -8.481 z m 10.984,20.898 c 7.766,-1.672 16.723,-7.047 16.723,-14.691 0,-6.567 -6.809,-11.465 -16.84,-11.465 h -21.617 c -1.551,0 -2.266,0 -2.266,1.555 0,0.836 0.715,0.836 2.148,0.836 0.118,0 1.551,0 2.868,0.117 1.429,0.242 2.027,0.242 2.027,1.316 0,0.238 0,0.477 -0.238,1.434 l -10.27,40.84 c -0.715,2.984 -0.836,3.582 -6.926,3.582 -1.312,0 -2.031,0 -2.031,1.554 0,0.836 0.957,0.836 1.074,0.836 2.153,0 7.524,-0.238 9.555,-0.238 2.148,0 7.645,0.238 9.793,0.238 0.598,0 1.434,0 1.434,-1.554 0,-0.836 -0.598,-0.836 -2.153,-0.836 -2.746,0 -4.894,0 -4.894,-1.313 0,-0.476 0.121,-0.836 0.238,-1.312 l 5.016,-20.184 h 9.078 c 6.926,0 8.238,4.301 8.238,6.926 0,1.074 -0.598,3.465 -1.074,5.254 -0.477,2.152 -1.195,4.898 -1.195,6.449 0,8.242 9.195,8.242 10.152,8.242 6.449,0 9.195,-7.644 9.195,-8.719 0,-0.957 -0.836,-0.957 -0.957,-0.957 -0.715,0 -0.836,0.481 -0.953,1.079 -1.91,5.609 -5.254,6.925 -6.926,6.925 -2.511,0 -3.105,-1.672 -3.105,-4.66 0,-2.387 0.476,-6.207 0.836,-8.715 0.117,-1.074 0.238,-2.508 0.238,-3.582 0,-5.851 -5.137,-8.242 -7.168,-8.957 z"
         style="fill:#000000;fill-opacity:1;fill-rule:nonzero;stroke:none"
         id="path1052" /><path
         d="m 517.496,31.434 c 0,-0.121 0.117,-0.836 0.117,-0.836 0,-0.36 -0.117,-0.836 -0.836,-0.836 -1.074,0 -5.492,0.476 -6.804,0.597 -0.36,0 -1.196,0.118 -1.196,1.192 0,0.719 0.836,0.719 1.434,0.719 2.508,0 2.508,0.476 2.508,0.835 0,0.356 0,0.715 -0.121,1.192 l -3.106,12.183 c -1.074,-1.792 -2.863,-3.226 -5.492,-3.226 -6.809,0 -13.734,7.523 -13.734,15.168 0,5.254 3.464,8.836 8.121,8.836 2.867,0 5.375,-1.551 7.523,-3.703 0.957,3.226 4.063,3.703 5.492,3.703 1.914,0 3.227,-1.074 4.184,-2.746 1.191,-2.149 1.91,-5.137 1.91,-5.375 0,-0.715 -0.719,-0.715 -0.836,-0.715 -0.836,0 -0.836,0.238 -1.195,1.672 -0.715,2.625 -1.672,5.73 -3.942,5.73 -1.312,0 -1.793,-1.191 -1.793,-2.625 0,-0.957 0.122,-1.433 0.36,-2.152 z m -11.348,28.66 c -0.355,1.551 -1.55,2.625 -2.746,3.582 -0.476,0.476 -2.625,2.148 -4.894,2.148 -2.031,0 -3.942,-1.433 -3.942,-5.133 0,-2.867 1.551,-8.718 2.868,-10.867 2.386,-4.301 5.132,-5.015 6.566,-5.015 3.703,0 4.777,4.058 4.777,4.656 0,0.121 -0.121,0.598 -0.121,0.715 z"
         style="fill:#000000;fill-opacity:1;fill-rule:nonzero;stroke:none"
         id="path1054" /><path
         d="m 1623.02,11.238 c 0.476,-1.793 0.714,-2.508 2.148,-2.746 0.719,-0.121 3.105,-0.121 4.656,-0.121 5.375,0 13.856,0 13.856,7.524 0,2.628 -1.196,7.882 -4.18,10.867 -2.031,1.91 -5.973,4.418 -12.898,4.418 h -8.481 z m 10.984,20.899 c 7.766,-1.672 16.723,-7.047 16.723,-14.692 0,-6.566 -6.809,-11.461 -16.84,-11.461 h -21.617 c -1.551,0 -2.266,0 -2.266,1.551 0,0.836 0.715,0.836 2.148,0.836 0.118,0 1.551,0 2.868,0.121 1.429,0.238 2.027,0.238 2.027,1.313 0,0.238 0,0.476 -0.238,1.433 l -10.27,40.84 c -0.715,2.988 -0.836,3.582 -6.926,3.582 -1.312,0 -2.031,0 -2.031,1.555 0,0.836 0.957,0.836 1.074,0.836 2.153,0 7.524,-0.238 9.555,-0.238 2.148,0 7.644,0.238 9.793,0.238 0.598,0 1.434,0 1.434,-1.555 0,-0.836 -0.598,-0.836 -2.153,-0.836 -2.746,0 -4.894,0 -4.894,-1.312 0,-0.477 0.121,-0.836 0.238,-1.313 l 5.016,-20.183 h 9.078 c 6.925,0 8.238,4.3 8.238,6.925 0,1.078 -0.598,3.465 -1.074,5.258 -0.477,2.149 -1.196,4.895 -1.196,6.445 0,8.243 9.196,8.243 10.153,8.243 6.449,0 9.195,-7.645 9.195,-8.719 0,-0.953 -0.836,-0.953 -0.957,-0.953 -0.715,0 -0.836,0.476 -0.953,1.074 -1.91,5.613 -5.254,6.926 -6.93,6.926 -2.508,0 -3.101,-1.672 -3.101,-4.656 0,-2.391 0.476,-6.211 0.836,-8.719 0.117,-1.074 0.238,-2.508 0.238,-3.582 0,-5.852 -5.137,-8.242 -7.168,-8.957 z"
         style="fill:#000000;fill-opacity:1;fill-rule:nonzero;stroke:none"
         id="path1056" /><path
         d="m 1675.582,49.047 c -1.91,0.359 -2.625,1.793 -2.625,2.988 0,1.43 1.074,2.028 2.027,2.028 1.196,0 2.989,-0.836 2.989,-3.461 0,-3.582 -4.063,-4.661 -6.926,-4.661 -8.004,0 -15.406,7.407 -15.406,14.809 0,4.539 3.105,9.195 9.793,9.195 9.074,0 13.254,-5.254 13.254,-5.968 0,-0.36 -0.477,-0.957 -0.954,-0.957 -0.242,0 -0.359,0.121 -0.836,0.597 -4.179,4.895 -10.39,4.895 -11.347,4.895 -3.821,0 -5.492,-2.625 -5.492,-5.969 0,-1.434 0.714,-7.285 3.464,-10.988 2.028,-2.625 4.774,-4.059 7.524,-4.059 0.715,0 3.223,0.117 4.535,1.551 z"
         style="fill:#000000;fill-opacity:1;fill-rule:nonzero;stroke:none"
         id="path1058" /><path
         d="m 1453.598,402.965 c 0.109,-0.32 0.324,-0.746 0.324,-0.961 0,0 0,-0.75 -0.856,-0.75 -0.644,0 -0.75,0.43 -0.859,0.855 -4.488,10.055 -6.949,14.653 -18.609,14.653 h -9.946 c -0.961,0 -1.175,0 -1.496,0 -0.75,-0.106 -0.965,-0.211 -0.965,-0.746 0,-0.215 0,-0.321 0.321,-1.496 l 4.707,-18.719 h 6.738 c 5.777,0 5.777,1.496 5.777,3.207 0,0.43 0,1.285 -0.429,3.316 -0.106,0.321 -0.215,0.535 -0.215,0.75 0,0.321 0.215,0.75 0.855,0.75 0.535,0 0.75,-0.324 1.071,-1.39 l 3.851,-15.938 c 0,-0.43 -0.32,-0.75 -0.855,-0.75 -0.535,0 -0.75,0.43 -0.856,1.18 -1.5,5.238 -2.676,6.844 -8.984,6.844 h -6.418 l 4.066,-16.473 c 0.641,-2.457 0.746,-2.672 3.743,-2.672 h 9.625 c 8.234,0 10.375,1.926 10.375,7.594 0,1.601 0,1.711 -0.321,3.636 0,0.321 -0.109,0.856 -0.109,1.176 0,0.321 0.215,0.856 0.855,0.856 0.75,0 0.856,-0.43 0.965,-1.711 l 1.391,-11.871 c 0.211,-1.821 -0.11,-1.821 -1.821,-1.821 h -34.543 c -1.285,0 -2.035,0 -2.035,1.391 0,0.75 0.645,0.75 1.926,0.75 2.567,0 4.492,0 4.492,1.176 0,0.32 0,0.429 -0.425,1.711 l -8.985,36.043 c -0.644,2.675 -0.75,3.207 -6.203,3.207 -1.18,0 -1.926,0 -1.926,1.285 0,0.855 0.641,0.855 1.926,0.855 h 35.398 c 1.606,0 1.711,-0.105 2.141,-1.175 z"
         style="fill:#000000;fill-opacity:1;fill-rule:nonzero;stroke:none"
         id="path1060" /><path
         d="m 1480.387,375.871 c -1.711,0.32 -2.352,1.602 -2.352,2.672 0,1.285 0.961,1.816 1.817,1.816 1.07,0 2.671,-0.746 2.671,-3.101 0,-3.207 -3.632,-4.168 -6.203,-4.168 -7.164,0 -13.797,6.629 -13.797,13.262 0,4.062 2.782,8.234 8.774,8.234 8.125,0 11.871,-4.707 11.871,-5.348 0,-0.32 -0.43,-0.855 -0.855,-0.855 -0.215,0 -0.321,0.105 -0.75,0.535 -3.743,4.383 -9.305,4.383 -10.161,4.383 -3.422,0 -4.922,-2.352 -4.922,-5.348 0,-1.281 0.645,-6.523 3.102,-9.84 1.82,-2.351 4.281,-3.633 6.738,-3.633 0.645,0 2.891,0.106 4.067,1.391 z"
         style="fill:#000000;fill-opacity:1;fill-rule:nonzero;stroke:none"
         id="path1062" /><path
         d="m 272.215,405.375 c 0.105,-0.324 0.32,-0.75 0.32,-0.965 0,0 0,-0.75 -0.855,-0.75 -0.645,0 -0.75,0.43 -0.856,0.856 -4.492,10.054 -6.953,14.656 -18.609,14.656 h -9.949 c -0.961,0 -1.176,0 -1.496,0 -0.75,-0.109 -0.965,-0.215 -0.965,-0.75 0,-0.215 0,-0.32 0.324,-1.496 l 4.703,-18.719 h 6.738 c 5.778,0 5.778,1.496 5.778,3.207 0,0.43 0,1.285 -0.43,3.316 -0.105,0.321 -0.215,0.536 -0.215,0.75 0,0.321 0.215,0.75 0.86,0.75 0.531,0 0.746,-0.324 1.066,-1.39 l 3.851,-15.938 c 0,-0.425 -0.32,-0.75 -0.855,-0.75 -0.535,0 -0.75,0.43 -0.855,1.18 -1.497,5.238 -2.676,6.844 -8.985,6.844 h -6.418 l 4.067,-16.473 c 0.64,-2.457 0.746,-2.672 3.742,-2.672 h 9.625 c 8.234,0 10.375,1.926 10.375,7.594 0,1.605 0,1.711 -0.321,3.637 0,0.32 -0.109,0.855 -0.109,1.176 0,0.32 0.215,0.855 0.856,0.855 0.75,0 0.859,-0.43 0.964,-1.711 l 1.391,-11.871 c 0.215,-1.82 -0.109,-1.82 -1.82,-1.82 h -34.543 c -1.285,0 -2.035,0 -2.035,1.39 0,0.75 0.644,0.75 1.925,0.75 2.567,0 4.493,0 4.493,1.176 0,0.32 0,0.43 -0.426,1.711 l -8.985,36.043 c -0.64,2.676 -0.75,3.211 -6.203,3.211 -1.175,0 -1.925,0 -1.925,1.281 0,0.856 0.64,0.856 1.925,0.856 h 35.403 c 1.601,0 1.711,-0.106 2.136,-1.176 z"
         style="fill:#000000;fill-opacity:1;fill-rule:nonzero;stroke:none"
         id="path1064" /><path
         d="m 305.418,364.906 c 0,-0.105 0.105,-0.75 0.105,-0.75 0,-0.32 -0.105,-0.746 -0.746,-0.746 -0.964,0 -4.922,0.426 -6.097,0.535 -0.321,0 -1.071,0.106 -1.071,1.067 0,0.644 0.75,0.644 1.286,0.644 2.246,0 2.246,0.426 2.246,0.746 0,0.325 0,0.645 -0.11,1.071 l -2.781,10.91 c -0.961,-1.606 -2.566,-2.887 -4.918,-2.887 -6.098,0 -12.301,6.738 -12.301,13.582 0,4.707 3.102,7.914 7.274,7.914 2.566,0 4.812,-1.39 6.738,-3.316 0.855,2.89 3.637,3.316 4.918,3.316 1.711,0 2.891,-0.961 3.746,-2.461 1.07,-1.926 1.711,-4.597 1.711,-4.812 0,-0.641 -0.641,-0.641 -0.75,-0.641 -0.75,0 -0.75,0.215 -1.07,1.496 -0.641,2.356 -1.496,5.133 -3.528,5.133 -1.175,0 -1.605,-1.066 -1.605,-2.352 0,-0.855 0.105,-1.281 0.32,-1.925 z m -10.16,25.668 c -0.32,1.391 -1.391,2.356 -2.461,3.211 -0.43,0.426 -2.352,1.922 -4.387,1.922 -1.816,0 -3.527,-1.281 -3.527,-4.598 0,-2.566 1.39,-7.808 2.566,-9.73 2.141,-3.852 4.598,-4.492 5.883,-4.492 3.316,0 4.277,3.636 4.277,4.168 0,0.109 -0.105,0.535 -0.105,0.644 z"
         style="fill:#000000;fill-opacity:1;fill-rule:nonzero;stroke:none"
         id="path1066" /></g></g></svg>
